<?xml version="1.0" encoding="iso-8859-1"?>
<!-- Generator: Adobe Illustrator 19.0.0, SVG Export Plug-In . SVG Version: 6.00 Build 0)  -->
<svg version="1.1" id="Capa_1" xmlns="http://www.w3.org/2000/svg" xmlns:xlink="http://www.w3.org/1999/xlink" x="0px" y="0px"
	 viewBox="0 0 489.911 489.911" style="enable-background:new 0 0 489.911 489.911;" xml:space="preserve">
<path d="M485.199,463.952c-9.823-24.033-32.808-80.314,3.888-168.608c0.043-0.102,2.066-5.766-0.763-9.477L314.912,4.947
	C313.017,1.873,309.659,0,306.046,0H70.184C52.422,0,35.625,9.512,22.892,26.792C0.151,57.64-6.424,106.464,6.778,148.977
	l109.317,281.296c11.054,35.536,35.101,59.629,63.637,59.629h299.726c5.194,0.187,10.727-2.985,10.413-10.775
	C489.707,475.079,488.029,470.894,485.199,463.952z M39.677,39.16c6.158-8.352,16.449-18.313,30.507-18.313h230.049L460.776,280.92
	H179.732c-33.608,0-60.991,33.417-68.251,79.967L26.444,142.117C15.532,106.872,20.968,64.536,39.677,39.16z M179.732,469.056
	c-26.719,0-49.298-38.167-49.298-83.948c0-45.175,22.578-83.342,49.298-83.342H464.22c-30.711,84.89-10.139,140.93,0.54,167.289
	H179.732z"/>
<g>
</g>
<g>
</g>
<g>
</g>
<g>
</g>
<g>
</g>
<g>
</g>
<g>
</g>
<g>
</g>
<g>
</g>
<g>
</g>
<g>
</g>
<g>
</g>
<g>
</g>
<g>
</g>
<g>
</g>
</svg>
