<?xml version="1.0" encoding="iso-8859-1"?>
<!-- Generator: Adobe Illustrator 18.0.0, SVG Export Plug-In . SVG Version: 6.00 Build 0)  -->
<!DOCTYPE svg PUBLIC "-//W3C//DTD SVG 1.1//EN" "http://www.w3.org/Graphics/SVG/1.1/DTD/svg11.dtd">
<svg version="1.1" id="Capa_1" xmlns="http://www.w3.org/2000/svg" xmlns:xlink="http://www.w3.org/1999/xlink" x="0px" y="0px"
	 viewBox="0 0 464.529 464.529" style="enable-background:new 0 0 464.529 464.529;" xml:space="preserve">
<g>
	<polygon style="fill:#4479FA;" points="153.552,334.444 120.359,333.621 231.266,444.529 341.351,334.444 305.053,334.444 
		309.149,317.444 307.053,317.444 330.71,219.259 132.684,219.259 155.552,317.444 149.592,317.444 	"/>
	<polygon style="fill:#4479FA;" points="352.619,124.378 373.516,37 90.85,37 110.911,124.378 	"/>
	<path style="fill:#2C3D8E;" d="M334.806,202.259l-27.753,115.184h51.298L231.266,444.529L104.181,317.444h51.371l-26.827-115.184
		H334.806 M334.806,182.259H128.724c-6.102,0-11.87,2.786-15.664,7.565c-3.794,4.779-5.199,11.029-3.814,16.972l21.113,90.647
		h-26.177c-8.089,0-15.382,4.873-18.478,12.346c-3.096,7.473-1.385,16.076,4.335,21.796l127.085,127.085
		c3.905,3.905,9.024,5.858,14.142,5.858s10.237-1.953,14.142-5.858l127.085-127.085c5.72-5.72,7.431-14.322,4.335-21.796
		c-3.096-7.474-10.388-12.346-18.478-12.346h-25.906l21.805-90.5c1.436-5.958,0.06-12.246-3.732-17.06
		C346.725,185.069,340.935,182.259,334.806,182.259L334.806,182.259z"/>
	<path style="fill:#2C3D8E;" d="M377.581,20l-24.962,104.378H110.911L86.947,20H377.581 M377.581,0H86.947
		c-6.091,0-11.85,2.776-15.645,7.54c-3.795,4.764-5.211,10.998-3.848,16.935l23.963,104.379
		c2.086,9.085,10.171,15.525,19.493,15.525h241.709c9.254,0,17.299-6.348,19.452-15.348l24.962-104.378
		c1.424-5.955,0.042-12.234-3.751-17.041C389.489,2.805,383.704,0,377.581,0L377.581,0z"/>
</g>
<g>
</g>
<g>
</g>
<g>
</g>
<g>
</g>
<g>
</g>
<g>
</g>
<g>
</g>
<g>
</g>
<g>
</g>
<g>
</g>
<g>
</g>
<g>
</g>
<g>
</g>
<g>
</g>
<g>
</g>
</svg>
