<?xml version="1.0" encoding="iso-8859-1"?>
<!-- Generator: Adobe Illustrator 19.0.0, SVG Export Plug-In . SVG Version: 6.00 Build 0)  -->
<svg version="1.1" id="Layer_1" xmlns="http://www.w3.org/2000/svg" xmlns:xlink="http://www.w3.org/1999/xlink" x="0px" y="0px"
	 viewBox="0 0 512 512" style="enable-background:new 0 0 512 512;" xml:space="preserve">
<circle style="fill:#324A5E;" cx="256" cy="256" r="256"/>
<path style="fill:#2B3B4E;" d="M501.912,327.349l-97.414-97.414l-3.787,7.763l-72.614-72.614L214.34,256.286l-100.642,66.145
	L299.558,508.29C396.585,491.658,474.952,420.43,501.912,327.349z"/>
<path style="fill:#B5F1F4;" d="M348.522,349.715c40.303,0,72.975-32.671,72.975-72.975c0-40.303-32.671-72.975-72.975-72.975
	c-0.56,0-1.112,0.029-1.67,0.043c-7.852-39.407-42.622-69.108-84.335-69.108c-32.134,0-60.132,17.634-74.895,43.741
	c-3.639-0.471-7.342-0.738-11.111-0.738c-47.499,0-86.006,38.505-86.006,86.006s38.505,86.006,86.006,86.006H348.522
	L348.522,349.715z"/>
<path style="fill:#84DBFF;" d="M348.522,203.767c-0.56,0-1.112,0.029-1.67,0.043c-7.852-39.407-42.622-69.108-84.335-69.108
	c-2.388,0-4.751,0.109-7.09,0.3v214.712h93.094c40.303,0,72.975-32.671,72.975-72.975
	C421.495,236.437,388.823,203.767,348.522,203.767z"/>
<polygon style="fill:#FC6F58;" points="281.762,267.969 281.762,183.661 230.24,183.661 230.24,267.969 204.479,267.969 
	256,319.491 307.522,267.969 "/>
<polygon style="fill:#F1543F;" points="307.522,267.969 281.762,267.969 281.762,183.661 255.426,183.661 255.426,318.917 
	256,319.491 "/>
<g>
</g>
<g>
</g>
<g>
</g>
<g>
</g>
<g>
</g>
<g>
</g>
<g>
</g>
<g>
</g>
<g>
</g>
<g>
</g>
<g>
</g>
<g>
</g>
<g>
</g>
<g>
</g>
<g>
</g>
</svg>
