<?xml version="1.0" encoding="utf-8"?>

<svg version="1.1" id="Icons" xmlns="http://www.w3.org/2000/svg" xmlns:xlink="http://www.w3.org/1999/xlink" x="0px" y="0px"
	 viewBox="0 0 32 32" style="enable-background:new 0 0 32 32;" xml:space="preserve">
<style type="text/css">
	.st0{fill:none;stroke:#000000;stroke-width:2;stroke-linecap:round;stroke-linejoin:round;stroke-miterlimit:10;}
	.st1{fill:none;stroke:#000000;stroke-width:2;stroke-linejoin:round;stroke-miterlimit:10;}
	.st2{fill:none;stroke:#000000;stroke-width:2;stroke-linecap:round;stroke-miterlimit:10;}
</style>
<path class="st1" d="M28.8,20.2c-1.1,0.2-2,0-2.4-0.7c-0.4-0.7-0.1-1.7,0.6-2.5c-0.9-0.9-1.9-1.5-3.1-1.8c-0.3,1-1,1.8-1.8,1.8
	s-1.5-0.7-1.8-1.8c-1.2,0.3-2.3,0.9-3.1,1.8c0.7,0.8,1,1.8,0.6,2.5c-0.4,0.7-1.4,0.9-2.4,0.7C15.1,20.8,15,21.4,15,22
	s0.1,1.2,0.2,1.8c1.1-0.2,2,0,2.4,0.7c0.4,0.7,0.1,1.7-0.6,2.5c0.9,0.9,1.9,1.5,3.1,1.8c0.3-1,1-1.8,1.8-1.8s1.5,0.7,1.8,1.8
	c1.2-0.3,2.3-0.9,3.1-1.8c-0.7-0.8-1-1.8-0.6-2.5c0.4-0.7,1.4-0.9,2.4-0.7c0.2-0.6,0.2-1.2,0.2-1.8S28.9,20.8,28.8,20.2z"/>
<circle class="st1" cx="22" cy="22" r="2"/>
<line class="st0" x1="5" y1="12" x2="21" y2="12"/>
<path class="st0" d="M10.5,8.1L9.3,3.9l0,0c2.3-1.2,5.1-1.2,7.4,0l0,0l-1.2,4.2"/>
<path class="st0" d="M16.5,4.9c2,1.2,3.3,3.4,3.3,5.9V12"/>
<path class="st0" d="M6.2,12v-1.2c0-2.5,1.3-4.7,3.3-5.9"/>
<path class="st0" d="M8,12v2c0,2.1,0.9,4,2.5,5v0c0,2.1-1.3,3.9-3.2,4.4C5.1,24,3.5,26,3,28.4C3,28.7,3.2,29,3.5,29H13"/>
</svg>
